<svg width="177" height="32" viewBox="0 0 177 32" fill="none" xmlns="http://www.w3.org/2000/svg">
<path d="M28.8565 15.1209L15.6306 7.1959L9.62722 10.7953V13.7117L19.2016 19.4494L15.6306 21.5877L4.84003 15.1209V9.38608L15.6306 2.91928L27.6403 10.1152L28.8565 9.38608V7.925L15.6306 0L2.40479 7.925V16.5791L15.6306 24.507L21.6368 20.9076V17.9912L12.0597 12.2535L15.6306 10.1152L26.4213 16.5791L26.424 22.3168L15.6306 28.7836L3.62102 21.5877L2.40479 22.3168V23.775L15.6306 31.7L28.8565 23.775V15.1209Z" fill="white"/>
<path d="M172.895 18.4605L171.009 18.0114C170.239 17.8278 169.52 17.4041 169.52 16.6358C169.52 15.7884 170.265 15.1274 171.352 15.1274C172.27 15.1274 173.187 15.7206 173.21 16.6019C173.21 16.6188 173.224 16.6358 173.244 16.6358H175.672C175.692 16.6358 175.709 16.6188 175.706 16.599C175.686 14.0342 173.414 12.9326 171.298 12.9326C168.722 12.9326 166.89 14.5455 166.89 16.5538C166.89 18.3786 167.953 19.5678 170.262 20.1751L171.935 20.5705C172.863 20.7824 173.528 21.2061 173.528 22.0252C173.528 22.9517 172.653 23.6127 171.219 23.6127C169.785 23.6127 168.955 22.7851 168.935 21.8219C168.935 21.8049 168.921 21.788 168.901 21.788H166.552C166.533 21.788 166.516 21.8049 166.518 21.8247C166.592 24.3669 168.944 25.8075 171.244 25.8075C173.795 25.8075 176.13 24.4319 176.13 22.0789C176.13 20.757 175.544 19.1186 172.889 18.4577L172.895 18.4605Z" fill="white"/>
<path d="M147.201 13.1953C147.173 13.1953 147.149 13.2179 147.149 13.2462V14.424C147.149 14.441 147.146 14.4636 147.116 14.4382C146.044 13.4665 144.681 12.9326 143.275 12.9326C143.267 12.9326 143.259 12.9326 143.251 12.9326C143.242 12.9326 143.234 12.9326 143.226 12.9326C139.898 12.9326 137.203 15.8166 137.203 19.37C137.203 22.9235 139.901 25.8075 143.226 25.8075C143.24 25.8075 143.253 25.8075 143.267 25.8075C143.267 25.8075 143.272 25.8075 143.275 25.8075C144.681 25.8075 146.047 25.268 147.124 24.2906C147.124 24.2906 147.151 24.268 147.151 24.2906V25.5137C147.151 25.5419 147.173 25.5674 147.203 25.5674H149.646C149.673 25.5674 149.698 25.5448 149.698 25.5137V13.2462C149.698 13.2179 149.676 13.1953 149.646 13.1953H147.201ZM143.275 23.4743C141.137 23.4743 139.399 21.6326 139.399 19.37C139.399 17.1075 141.137 15.2658 143.275 15.2658C145.413 15.2658 147.146 17.1018 147.151 19.3587V19.3813C147.146 21.6383 145.408 23.4743 143.275 23.4743Z" fill="white"/>
<path d="M136.191 23.3315H128.795V6.05286C128.795 6.02349 128.772 6 128.744 6H126.201C126.173 6 126.15 6.02349 126.15 6.05286V25.7546C126.15 25.784 126.173 25.8075 126.201 25.8075H136.191C136.219 25.8075 136.242 25.784 136.242 25.7546V23.3873C136.242 23.358 136.219 23.3345 136.191 23.3345V23.3315Z" fill="white"/>
<path d="M118.424 13.1312C117.93 12.9998 117.43 12.9326 116.94 12.9326C115.464 12.9326 113.998 13.4991 112.914 14.5299V14.5241L112.891 14.5416L112.871 14.5679L112.871 12.9881C112.871 12.9589 112.848 12.9326 112.817 12.9326H110.345C110.317 12.9326 110.291 12.956 110.291 12.9881L110.291 25.752C110.291 25.7812 110.314 25.8075 110.345 25.8075H112.817C112.846 25.8075 112.871 25.7841 112.871 25.752V19.5905C112.871 17.2515 114.726 15.3476 116.94 15.3476C117.323 15.3476 117.706 15.406 118.075 15.5228C118.089 15.5286 118.103 15.5228 118.117 15.5169C118.129 15.5082 118.137 15.4965 118.14 15.4819L118.461 13.1954C118.463 13.1691 118.449 13.1429 118.424 13.137V13.1312Z" fill="white"/>
<path d="M92.94 12.9326H90.5877V8.0362C90.5877 8.00702 90.5654 7.98075 90.5346 7.98075H87.7574C87.7295 7.98075 87.7043 8.0041 87.7043 8.0362V12.9326H85.3517C85.3238 12.9326 85.3014 12.956 85.3014 12.9851V15.3619C85.3014 15.3911 85.3238 15.4144 85.3517 15.4144H87.7043V25.7581C87.7043 25.7872 87.7267 25.8135 87.7574 25.8135H90.5346C90.5626 25.8135 90.5877 25.7902 90.5877 25.7581V15.4144H92.94C92.968 15.4144 92.9904 15.3911 92.9904 15.3619V12.9851C92.9904 12.956 92.968 12.9326 92.94 12.9326Z" fill="white"/>
<path d="M82.359 6H79.5936C79.561 6 79.5346 6.02498 79.5346 6.0558V25.7517C79.5346 25.7825 79.561 25.8075 79.5936 25.8075H82.359C82.3916 25.8075 82.418 25.7825 82.418 25.7517V6.0558C82.418 6.02498 82.3916 6 82.359 6Z" fill="white"/>
<path d="M70.4929 12.9326C70.4731 12.9326 70.4505 12.9326 70.4306 12.9326C66.9663 12.9326 64.1563 15.8166 64.1563 19.37C64.1563 22.9235 66.9663 25.8075 70.4306 25.8075C70.5128 25.8075 70.5949 25.8075 70.6742 25.8018C70.6969 25.8018 70.7195 25.8018 70.7422 25.799C70.8017 25.7962 70.8612 25.7933 70.9207 25.7877C70.9462 25.7877 70.9717 25.782 70.9972 25.782C71.0538 25.7764 71.1076 25.7707 71.1643 25.7651C71.1926 25.7623 71.2209 25.7594 71.2464 25.7538C71.2861 25.7481 71.3229 25.7425 71.3626 25.7368C71.3994 25.7312 71.439 25.7255 71.4759 25.7199C73.3256 25.3951 74.96 24.2115 75.8835 22.4743C75.8892 22.463 75.892 22.4461 75.8863 22.4348C75.8807 22.4207 75.8722 22.4094 75.8608 22.4037L73.9516 21.4236C73.9261 21.4123 73.8978 21.4207 73.8836 21.4433C73.1641 22.6975 71.8413 23.4771 70.4306 23.4771C68.6177 23.4771 67.0399 22.2314 66.5669 20.4378C66.5584 20.3982 66.5952 20.3982 66.5952 20.3982H76.5265C76.552 20.3982 76.5747 20.3784 76.5803 20.353C76.6285 20.0282 76.6511 19.7005 76.6511 19.3757C76.6511 15.8477 73.895 12.975 70.4929 12.9383V12.9326ZM66.5952 18.3447C66.564 18.3447 66.564 18.3221 66.5669 18.308C67.0371 16.5115 68.6149 15.263 70.4306 15.263C72.2464 15.263 73.8298 16.5143 74.2972 18.3136C74.2972 18.3249 74.2972 18.3419 74.2745 18.3419H66.5952V18.3447Z" fill="white"/>
<path d="M56.7189 18.884L62.2707 13.0236C62.285 13.009 62.2907 12.9855 62.2821 12.9649C62.2736 12.9444 62.2564 12.9326 62.2336 12.9326H59.1205C59.1205 12.9326 59.092 12.9385 59.0834 12.9502L54.9012 17.3689C54.7985 17.4775 54.79 17.3689 54.79 17.3689V6.05285C54.79 6.02349 54.7671 6 54.7386 6H52.1933C52.1648 6 52.142 6.02349 52.142 6.05285V25.7517C52.142 25.781 52.1648 25.8045 52.1933 25.8045H54.7386C54.7671 25.8045 54.79 25.781 54.79 25.7517V20.9598C54.79 20.9129 54.8271 20.8776 54.8699 20.8776C54.8898 20.8776 54.9127 20.8864 54.9269 20.9011L59.6494 25.7898C59.6494 25.7898 59.6722 25.8075 59.6893 25.8075H63.1391C63.1619 25.8075 63.1819 25.7957 63.1905 25.7722C63.199 25.7517 63.1962 25.7282 63.179 25.7106L56.7217 18.8898L56.7189 18.884Z" fill="white"/>
<path d="M44.3182 14.9113L42.0451 14.3095C39.7721 13.7077 39.5875 12.4516 39.5875 11.8498C39.5875 10.1292 41.1029 9.06295 42.8028 9.06295C44.6481 9.06295 45.9734 10.249 45.9929 12.0046C45.9929 12.0251 46.0069 12.0397 46.0265 12.0397H48.6239C48.6434 12.0397 48.6602 12.0222 48.6574 12.0017C48.6379 8.61016 46.1104 6.49519 42.8811 6.49519C39.6518 6.49519 36.8951 8.59847 36.8951 11.9024C36.8951 13.4594 37.5214 15.8344 41.3657 16.8451L43.6667 17.4469C45.1318 17.8559 46.5689 18.6475 46.5689 20.3155C46.5689 21.8726 45.3135 23.2368 43.1719 23.2368C41.0302 23.2368 39.5065 21.7002 39.4338 20.1023C39.4338 20.0848 39.4198 20.0702 39.4002 20.0702H36.8C36.7805 20.0702 36.7637 20.0877 36.7637 20.1081C36.7832 23.1258 39.3415 25.8075 43.1691 25.8075C46.9967 25.8075 49.2585 23.3215 49.2585 20.1812C49.2585 17.4235 47.3517 15.7029 44.3182 14.9113Z" fill="white"/>
<path d="M101.25 12.9326C101.23 12.9326 101.207 12.9326 101.187 12.9326C97.7229 12.9326 94.9129 15.8166 94.9129 19.37C94.9129 22.9235 97.7229 25.8075 101.187 25.8075C101.269 25.8075 101.352 25.8075 101.431 25.8018C101.453 25.8018 101.476 25.8018 101.499 25.799C101.558 25.7962 101.618 25.7933 101.677 25.7877C101.703 25.7877 101.728 25.782 101.754 25.782C101.81 25.7764 101.864 25.7707 101.921 25.7651C101.949 25.7623 101.978 25.7594 102.003 25.7538C102.043 25.7481 102.08 25.7425 102.119 25.7368C102.156 25.7312 102.196 25.7255 102.232 25.7199C104.082 25.3951 105.717 24.2115 106.64 22.4743C106.646 22.463 106.649 22.4461 106.643 22.4348C106.637 22.4207 106.629 22.4094 106.617 22.4037L104.708 21.4236C104.683 21.4123 104.654 21.4207 104.64 21.4433C103.921 22.6975 102.598 23.4771 101.187 23.4771C99.3743 23.4771 97.7965 22.2314 97.3235 20.4378C97.315 20.3982 97.3518 20.3982 97.3518 20.3982H107.283C107.309 20.3982 107.331 20.3784 107.337 20.353C107.385 20.0282 107.408 19.7005 107.408 19.3757C107.408 15.8477 104.652 12.975 101.25 12.9383V12.9326ZM97.3518 18.3447C97.3206 18.3447 97.3206 18.3221 97.3235 18.308C97.7937 16.5115 99.3715 15.263 101.187 15.263C103.003 15.263 104.586 16.5143 105.054 18.3136C105.054 18.3249 105.054 18.3419 105.031 18.3419H97.3518V18.3447Z" fill="white"/>
<path d="M155.079 6C155.106 6 155.131 6.0226 155.131 6.05084V14.4256C155.131 14.4426 155.134 14.4652 155.164 14.4398C156.236 13.4681 157.598 12.9342 159.004 12.9342C159.013 12.9342 159.021 12.9342 159.029 12.9342C159.037 12.9342 159.046 12.9342 159.054 12.9342C162.382 12.9342 165.076 15.8182 165.076 19.3716C165.076 22.9251 162.379 25.8091 159.054 25.8091C159.04 25.8091 159.026 25.8091 159.013 25.8091C159.013 25.8091 159.007 25.8091 159.004 25.8091C157.598 25.8091 156.233 25.2695 155.156 24.2922C155.156 24.2922 155.128 24.2696 155.128 24.2922V25.5153C155.128 25.5435 155.106 25.569 155.076 25.569H152.634C152.606 25.569 152.582 25.5464 152.582 25.5153V6.05084C152.582 6.0226 152.603 6 152.634 6H155.079ZM159.004 23.4759C161.143 23.4759 162.881 21.6342 162.881 19.3716C162.881 17.1091 161.143 15.2674 159.004 15.2674C156.866 15.2674 155.134 17.1034 155.128 19.3603V19.3829C155.134 21.6398 156.872 23.4759 159.004 23.4759Z" fill="white"/>
</svg>
